<mxfile host="app.diagrams.net" modified="2022-03-31T19:50:52.256Z" agent="5.0 (Macintosh; Intel Mac OS X 10_14_6) AppleWebKit/537.36 (KHTML, like Gecko) Chrome/99.0.4844.84 Safari/537.36" etag="xp-DRNnnymNmztSklKzm" version="17.2.4" type="github">
  <diagram id="EM_qKB2MPKvF6qN4yPCp" name="Page-1">
    <mxGraphModel dx="316" dy="722" grid="1" gridSize="10" guides="1" tooltips="1" connect="1" arrows="1" fold="1" page="1" pageScale="1" pageWidth="827" pageHeight="1169" math="0" shadow="0">
      <root>
        <mxCell id="0" />
        <mxCell id="1" parent="0" />
        <mxCell id="EnMobQsevsdsLdu5N_tb-4" value="" style="edgeStyle=orthogonalEdgeStyle;rounded=0;orthogonalLoop=1;jettySize=auto;html=1;" edge="1" parent="1" source="EnMobQsevsdsLdu5N_tb-1" target="EnMobQsevsdsLdu5N_tb-3">
          <mxGeometry relative="1" as="geometry" />
        </mxCell>
        <mxCell id="EnMobQsevsdsLdu5N_tb-1" value="" style="rounded=0;whiteSpace=wrap;html=1;fillColor=#ffe6cc;strokeColor=#d79b00;" vertex="1" parent="1">
          <mxGeometry x="80" y="300" width="40" height="20" as="geometry" />
        </mxCell>
        <mxCell id="EnMobQsevsdsLdu5N_tb-2" value="" style="endArrow=none;dashed=1;html=1;dashPattern=1 3;strokeWidth=2;rounded=0;" edge="1" parent="1">
          <mxGeometry width="50" height="50" relative="1" as="geometry">
            <mxPoint x="80" y="330" as="sourcePoint" />
            <mxPoint x="360.95238095238096" y="330" as="targetPoint" />
          </mxGeometry>
        </mxCell>
        <mxCell id="EnMobQsevsdsLdu5N_tb-5" style="edgeStyle=orthogonalEdgeStyle;rounded=0;orthogonalLoop=1;jettySize=auto;html=1;" edge="1" parent="1" source="EnMobQsevsdsLdu5N_tb-3">
          <mxGeometry relative="1" as="geometry">
            <mxPoint x="240" y="310" as="targetPoint" />
          </mxGeometry>
        </mxCell>
        <mxCell id="EnMobQsevsdsLdu5N_tb-3" value="" style="whiteSpace=wrap;html=1;rounded=0;fillColor=#f8cecc;strokeColor=#b85450;" vertex="1" parent="1">
          <mxGeometry x="160" y="300" width="40" height="20" as="geometry" />
        </mxCell>
        <mxCell id="EnMobQsevsdsLdu5N_tb-8" value="" style="edgeStyle=orthogonalEdgeStyle;rounded=0;orthogonalLoop=1;jettySize=auto;html=1;" edge="1" parent="1" source="EnMobQsevsdsLdu5N_tb-6" target="EnMobQsevsdsLdu5N_tb-7">
          <mxGeometry relative="1" as="geometry" />
        </mxCell>
        <mxCell id="EnMobQsevsdsLdu5N_tb-6" value="" style="whiteSpace=wrap;html=1;rounded=0;fillColor=#fff2cc;strokeColor=#d6b656;" vertex="1" parent="1">
          <mxGeometry x="240" y="300" width="40" height="20" as="geometry" />
        </mxCell>
        <mxCell id="EnMobQsevsdsLdu5N_tb-7" value="" style="whiteSpace=wrap;html=1;rounded=0;fillColor=#e1d5e7;strokeColor=#9673a6;" vertex="1" parent="1">
          <mxGeometry x="320" y="300" width="40" height="20" as="geometry" />
        </mxCell>
        <mxCell id="EnMobQsevsdsLdu5N_tb-9" value="v1" style="text;html=1;strokeColor=none;fillColor=none;align=center;verticalAlign=middle;whiteSpace=wrap;rounded=0;" vertex="1" parent="1">
          <mxGeometry x="85" y="302.5" width="30" height="15" as="geometry" />
        </mxCell>
        <mxCell id="EnMobQsevsdsLdu5N_tb-14" value="v1" style="text;html=1;strokeColor=none;fillColor=none;align=center;verticalAlign=middle;whiteSpace=wrap;rounded=0;" vertex="1" parent="1">
          <mxGeometry x="165" y="302.5" width="30" height="15" as="geometry" />
        </mxCell>
        <mxCell id="EnMobQsevsdsLdu5N_tb-15" value="v1" style="text;html=1;strokeColor=none;fillColor=none;align=center;verticalAlign=middle;whiteSpace=wrap;rounded=0;" vertex="1" parent="1">
          <mxGeometry x="245" y="302.5" width="30" height="15" as="geometry" />
        </mxCell>
        <mxCell id="EnMobQsevsdsLdu5N_tb-16" value="v1" style="text;html=1;strokeColor=none;fillColor=none;align=center;verticalAlign=middle;whiteSpace=wrap;rounded=0;" vertex="1" parent="1">
          <mxGeometry x="325" y="302.5" width="30" height="15" as="geometry" />
        </mxCell>
        <mxCell id="EnMobQsevsdsLdu5N_tb-17" value="" style="edgeStyle=orthogonalEdgeStyle;rounded=0;orthogonalLoop=1;jettySize=auto;html=1;" edge="1" parent="1" source="EnMobQsevsdsLdu5N_tb-18" target="EnMobQsevsdsLdu5N_tb-20">
          <mxGeometry relative="1" as="geometry" />
        </mxCell>
        <mxCell id="EnMobQsevsdsLdu5N_tb-18" value="" style="rounded=0;whiteSpace=wrap;html=1;fillColor=#ffe6cc;strokeColor=#d79b00;" vertex="1" parent="1">
          <mxGeometry x="80" y="260" width="40" height="20" as="geometry" />
        </mxCell>
        <mxCell id="EnMobQsevsdsLdu5N_tb-19" style="edgeStyle=orthogonalEdgeStyle;rounded=0;orthogonalLoop=1;jettySize=auto;html=1;" edge="1" parent="1" source="EnMobQsevsdsLdu5N_tb-20">
          <mxGeometry relative="1" as="geometry">
            <mxPoint x="240" y="270" as="targetPoint" />
          </mxGeometry>
        </mxCell>
        <mxCell id="EnMobQsevsdsLdu5N_tb-20" value="" style="whiteSpace=wrap;html=1;rounded=0;fillColor=#f8cecc;strokeColor=#b85450;" vertex="1" parent="1">
          <mxGeometry x="160" y="260" width="40" height="20" as="geometry" />
        </mxCell>
        <mxCell id="EnMobQsevsdsLdu5N_tb-21" value="" style="edgeStyle=orthogonalEdgeStyle;rounded=0;orthogonalLoop=1;jettySize=auto;html=1;" edge="1" parent="1" source="EnMobQsevsdsLdu5N_tb-22" target="EnMobQsevsdsLdu5N_tb-23">
          <mxGeometry relative="1" as="geometry" />
        </mxCell>
        <mxCell id="EnMobQsevsdsLdu5N_tb-22" value="" style="whiteSpace=wrap;html=1;rounded=0;fillColor=#fff2cc;strokeColor=#d6b656;" vertex="1" parent="1">
          <mxGeometry x="240" y="260" width="40" height="20" as="geometry" />
        </mxCell>
        <mxCell id="EnMobQsevsdsLdu5N_tb-23" value="" style="whiteSpace=wrap;html=1;rounded=0;fillColor=#e1d5e7;strokeColor=#9673a6;" vertex="1" parent="1">
          <mxGeometry x="320" y="260" width="40" height="20" as="geometry" />
        </mxCell>
        <mxCell id="EnMobQsevsdsLdu5N_tb-24" value="v2" style="text;html=1;strokeColor=none;fillColor=none;align=center;verticalAlign=middle;whiteSpace=wrap;rounded=0;" vertex="1" parent="1">
          <mxGeometry x="85" y="262.5" width="30" height="15" as="geometry" />
        </mxCell>
        <mxCell id="EnMobQsevsdsLdu5N_tb-28" value="v2" style="text;html=1;strokeColor=none;fillColor=none;align=center;verticalAlign=middle;whiteSpace=wrap;rounded=0;" vertex="1" parent="1">
          <mxGeometry x="165" y="262.5" width="30" height="15" as="geometry" />
        </mxCell>
        <mxCell id="EnMobQsevsdsLdu5N_tb-29" value="v2" style="text;html=1;strokeColor=none;fillColor=none;align=center;verticalAlign=middle;whiteSpace=wrap;rounded=0;" vertex="1" parent="1">
          <mxGeometry x="245" y="262.5" width="30" height="15" as="geometry" />
        </mxCell>
        <mxCell id="EnMobQsevsdsLdu5N_tb-30" value="v2" style="text;html=1;strokeColor=none;fillColor=none;align=center;verticalAlign=middle;whiteSpace=wrap;rounded=0;" vertex="1" parent="1">
          <mxGeometry x="325" y="262.5" width="30" height="15" as="geometry" />
        </mxCell>
        <mxCell id="EnMobQsevsdsLdu5N_tb-31" value="Main:" style="text;html=1;strokeColor=none;fillColor=none;align=center;verticalAlign=middle;whiteSpace=wrap;rounded=0;" vertex="1" parent="1">
          <mxGeometry x="25" y="300" width="55" height="20" as="geometry" />
        </mxCell>
        <mxCell id="EnMobQsevsdsLdu5N_tb-32" value="Reserve:" style="text;html=1;strokeColor=none;fillColor=none;align=center;verticalAlign=middle;whiteSpace=wrap;rounded=0;" vertex="1" parent="1">
          <mxGeometry x="25" y="260" width="55" height="20" as="geometry" />
        </mxCell>
        <mxCell id="EnMobQsevsdsLdu5N_tb-56" value="" style="edgeStyle=orthogonalEdgeStyle;rounded=0;orthogonalLoop=1;jettySize=auto;html=1;" edge="1" parent="1" source="EnMobQsevsdsLdu5N_tb-57" target="EnMobQsevsdsLdu5N_tb-60">
          <mxGeometry relative="1" as="geometry" />
        </mxCell>
        <mxCell id="EnMobQsevsdsLdu5N_tb-57" value="" style="rounded=0;whiteSpace=wrap;html=1;fillColor=#ffe6cc;strokeColor=#d79b00;" vertex="1" parent="1">
          <mxGeometry x="79.05" y="410" width="40" height="20" as="geometry" />
        </mxCell>
        <mxCell id="EnMobQsevsdsLdu5N_tb-58" value="" style="endArrow=none;dashed=1;html=1;dashPattern=1 3;strokeWidth=2;rounded=0;" edge="1" parent="1">
          <mxGeometry width="50" height="50" relative="1" as="geometry">
            <mxPoint x="79.05" y="440" as="sourcePoint" />
            <mxPoint x="360.002380952381" y="440" as="targetPoint" />
          </mxGeometry>
        </mxCell>
        <mxCell id="EnMobQsevsdsLdu5N_tb-59" style="edgeStyle=orthogonalEdgeStyle;rounded=0;orthogonalLoop=1;jettySize=auto;html=1;" edge="1" parent="1" source="EnMobQsevsdsLdu5N_tb-60">
          <mxGeometry relative="1" as="geometry">
            <mxPoint x="239.05000000000013" y="420" as="targetPoint" />
          </mxGeometry>
        </mxCell>
        <mxCell id="EnMobQsevsdsLdu5N_tb-60" value="" style="whiteSpace=wrap;html=1;rounded=0;fillColor=#f8cecc;strokeColor=#b85450;" vertex="1" parent="1">
          <mxGeometry x="159.05" y="410" width="40" height="20" as="geometry" />
        </mxCell>
        <mxCell id="EnMobQsevsdsLdu5N_tb-61" value="" style="edgeStyle=orthogonalEdgeStyle;rounded=0;orthogonalLoop=1;jettySize=auto;html=1;" edge="1" parent="1" source="EnMobQsevsdsLdu5N_tb-62" target="EnMobQsevsdsLdu5N_tb-63">
          <mxGeometry relative="1" as="geometry" />
        </mxCell>
        <mxCell id="EnMobQsevsdsLdu5N_tb-62" value="" style="whiteSpace=wrap;html=1;rounded=0;fillColor=#fff2cc;strokeColor=#d6b656;" vertex="1" parent="1">
          <mxGeometry x="239.05" y="410" width="40" height="20" as="geometry" />
        </mxCell>
        <mxCell id="EnMobQsevsdsLdu5N_tb-63" value="" style="whiteSpace=wrap;html=1;rounded=0;fillColor=#e1d5e7;strokeColor=#9673a6;" vertex="1" parent="1">
          <mxGeometry x="319.05" y="410" width="40" height="20" as="geometry" />
        </mxCell>
        <mxCell id="EnMobQsevsdsLdu5N_tb-64" value="v1" style="text;html=1;strokeColor=none;fillColor=none;align=center;verticalAlign=middle;whiteSpace=wrap;rounded=0;" vertex="1" parent="1">
          <mxGeometry x="84.05" y="412.5" width="30" height="15" as="geometry" />
        </mxCell>
        <mxCell id="EnMobQsevsdsLdu5N_tb-65" value="v1" style="text;html=1;strokeColor=none;fillColor=none;align=center;verticalAlign=middle;whiteSpace=wrap;rounded=0;" vertex="1" parent="1">
          <mxGeometry x="164.05" y="412.5" width="30" height="15" as="geometry" />
        </mxCell>
        <mxCell id="EnMobQsevsdsLdu5N_tb-66" value="v1" style="text;html=1;strokeColor=none;fillColor=none;align=center;verticalAlign=middle;whiteSpace=wrap;rounded=0;" vertex="1" parent="1">
          <mxGeometry x="244.05" y="412.5" width="30" height="15" as="geometry" />
        </mxCell>
        <mxCell id="EnMobQsevsdsLdu5N_tb-67" value="v1" style="text;html=1;strokeColor=none;fillColor=none;align=center;verticalAlign=middle;whiteSpace=wrap;rounded=0;" vertex="1" parent="1">
          <mxGeometry x="324.05" y="412.5" width="30" height="15" as="geometry" />
        </mxCell>
        <mxCell id="EnMobQsevsdsLdu5N_tb-68" value="" style="edgeStyle=orthogonalEdgeStyle;rounded=0;orthogonalLoop=1;jettySize=auto;html=1;" edge="1" parent="1" source="EnMobQsevsdsLdu5N_tb-69" target="EnMobQsevsdsLdu5N_tb-71">
          <mxGeometry relative="1" as="geometry" />
        </mxCell>
        <mxCell id="EnMobQsevsdsLdu5N_tb-69" value="" style="rounded=0;whiteSpace=wrap;html=1;fillColor=#ffe6cc;strokeColor=#d79b00;" vertex="1" parent="1">
          <mxGeometry x="79.05" y="370" width="40" height="20" as="geometry" />
        </mxCell>
        <mxCell id="EnMobQsevsdsLdu5N_tb-70" style="edgeStyle=orthogonalEdgeStyle;rounded=0;orthogonalLoop=1;jettySize=auto;html=1;" edge="1" parent="1" source="EnMobQsevsdsLdu5N_tb-71">
          <mxGeometry relative="1" as="geometry">
            <mxPoint x="239.05000000000013" y="380" as="targetPoint" />
          </mxGeometry>
        </mxCell>
        <mxCell id="EnMobQsevsdsLdu5N_tb-71" value="" style="whiteSpace=wrap;html=1;rounded=0;fillColor=#f8cecc;strokeColor=#b85450;" vertex="1" parent="1">
          <mxGeometry x="159.05" y="370" width="40" height="20" as="geometry" />
        </mxCell>
        <mxCell id="EnMobQsevsdsLdu5N_tb-72" value="" style="edgeStyle=orthogonalEdgeStyle;rounded=0;orthogonalLoop=1;jettySize=auto;html=1;" edge="1" parent="1" source="EnMobQsevsdsLdu5N_tb-73" target="EnMobQsevsdsLdu5N_tb-74">
          <mxGeometry relative="1" as="geometry" />
        </mxCell>
        <mxCell id="EnMobQsevsdsLdu5N_tb-73" value="" style="whiteSpace=wrap;html=1;rounded=0;fillColor=#fff2cc;strokeColor=#d6b656;" vertex="1" parent="1">
          <mxGeometry x="239.05" y="370" width="40" height="20" as="geometry" />
        </mxCell>
        <mxCell id="EnMobQsevsdsLdu5N_tb-74" value="" style="whiteSpace=wrap;html=1;rounded=0;fillColor=#e1d5e7;strokeColor=#9673a6;" vertex="1" parent="1">
          <mxGeometry x="319.05" y="370" width="40" height="20" as="geometry" />
        </mxCell>
        <mxCell id="EnMobQsevsdsLdu5N_tb-75" value="v2" style="text;html=1;strokeColor=none;fillColor=none;align=center;verticalAlign=middle;whiteSpace=wrap;rounded=0;" vertex="1" parent="1">
          <mxGeometry x="84.05" y="372.5" width="30" height="15" as="geometry" />
        </mxCell>
        <mxCell id="EnMobQsevsdsLdu5N_tb-76" value="v2" style="text;html=1;strokeColor=none;fillColor=none;align=center;verticalAlign=middle;whiteSpace=wrap;rounded=0;" vertex="1" parent="1">
          <mxGeometry x="164.05" y="372.5" width="30" height="15" as="geometry" />
        </mxCell>
        <mxCell id="EnMobQsevsdsLdu5N_tb-77" value="v2" style="text;html=1;strokeColor=none;fillColor=none;align=center;verticalAlign=middle;whiteSpace=wrap;rounded=0;" vertex="1" parent="1">
          <mxGeometry x="244.05" y="372.5" width="30" height="15" as="geometry" />
        </mxCell>
        <mxCell id="EnMobQsevsdsLdu5N_tb-78" value="v2" style="text;html=1;strokeColor=none;fillColor=none;align=center;verticalAlign=middle;whiteSpace=wrap;rounded=0;" vertex="1" parent="1">
          <mxGeometry x="324.05" y="372.5" width="30" height="15" as="geometry" />
        </mxCell>
        <mxCell id="EnMobQsevsdsLdu5N_tb-79" value="Main:" style="text;html=1;strokeColor=none;fillColor=none;align=center;verticalAlign=middle;whiteSpace=wrap;rounded=0;" vertex="1" parent="1">
          <mxGeometry x="24.05" y="410" width="55" height="20" as="geometry" />
        </mxCell>
        <mxCell id="EnMobQsevsdsLdu5N_tb-80" value="Reserve:" style="text;html=1;strokeColor=none;fillColor=none;align=center;verticalAlign=middle;whiteSpace=wrap;rounded=0;" vertex="1" parent="1">
          <mxGeometry x="24.05" y="370" width="55" height="20" as="geometry" />
        </mxCell>
      </root>
    </mxGraphModel>
  </diagram>
</mxfile>
